<?xml version="1.0" encoding="UTF-8" standalone="no"?>
<!DOCTYPE svg PUBLIC "-//W3C//DTD SVG 1.1//EN" "http://www.w3.org/Graphics/SVG/1.1/DTD/svg11.dtd">
<svg width="100%" height="100%" viewBox="0 0 28 41" version="1.1" xmlns="http://www.w3.org/2000/svg" xmlns:xlink="http://www.w3.org/1999/xlink" xml:space="preserve" style="fill-rule:evenodd;clip-rule:evenodd;stroke-linejoin:round;stroke-miterlimit:1.41421;">
    <clipPath id="_clip1">
        <rect id="MTB" x="0" y="0" width="27.229" height="40.452"/>
    </clipPath>
    <g clip-path="url(#_clip1)">
        <g transform="matrix(1,0,0,1,-3527.65,-357.27)">
            <g transform="matrix(0.135982,0,0,0.0945793,3223.56,344.113)">
                <text x="2236.22px" y="532.985px" style="font-family:'Avenir-Black', 'Avenir', sans-serif;font-weight:800;font-size:92.448px;fill:white;">MTB</text>
            </g>
            <g transform="matrix(0.0765427,0,0,0.0765427,3500.04,353.413)">
                <path d="M700.249,83.855C695.462,88.642 687.701,88.642 682.914,83.855C678.129,79.07 678.129,71.307 682.914,66.521C687.701,61.734 695.464,61.734 700.249,66.521C705.036,71.307 705.036,79.07 700.249,83.855ZM673.371,57.77L501.99,220.244C489.689,232.543 489.689,252.48 501.99,264.78C514.289,277.079 534.229,277.079 546.528,264.78L709,93.399C718.84,83.562 718.84,67.608 709,57.77C699.162,47.931 683.209,47.931 673.371,57.77Z" style="fill:white;fill-rule:nonzero;"/>
                <path d="M639.438,254.115C638.403,276.4 626.242,297.505 626.242,297.505C618.737,309.175 610.029,302.912 610.029,302.912L603.522,297.221C598.138,292.054 601.487,286.43 601.487,286.43C611.048,269.578 612.259,251.724 612.259,251.724C613.277,245.413 619.511,243.436 619.511,243.436L630.142,243.34C640.506,243.85 639.438,254.115 639.438,254.115ZM593.827,315.212C589.474,315.106 586.034,311.493 586.143,307.142C586.246,302.791 589.857,299.353 594.211,299.458C598.561,299.565 602.002,303.178 601.895,307.527C601.788,311.877 598.175,315.32 593.827,315.212ZM585.06,317.183L593.362,324.132C599.802,332.265 590.144,339.21 590.144,339.21C572.69,353.108 548.796,357.853 548.796,357.853C535.07,359.886 534.054,349.211 534.054,349.211L534.054,340.567C534.393,333.11 540.832,331.925 540.832,331.925C559.808,328.028 574.047,317.183 574.047,317.183C579.468,313.793 585.06,317.183 585.06,317.183ZM509.557,361.051C487.268,360.014 466.167,347.851 466.167,347.851C454.494,340.348 460.757,331.637 460.757,331.637L466.447,325.132C471.618,319.75 477.238,323.095 477.238,323.095C494.092,332.656 511.944,333.868 511.944,333.868C518.258,334.885 520.234,341.121 520.234,341.121L520.326,351.752C519.82,362.113 509.557,361.051 509.557,361.051ZM448.458,315.435C448.563,311.085 452.178,307.642 456.528,307.751C460.879,307.854 464.317,311.469 464.212,315.819C464.105,320.172 460.496,323.61 456.141,323.503C451.791,323.398 448.349,319.788 448.458,315.435ZM424.454,311.753C410.563,294.298 405.817,270.406 405.817,270.406C403.782,256.679 414.459,255.664 414.459,255.664L423.103,255.664C430.562,256.003 431.745,262.44 431.745,262.44C435.644,281.418 446.489,295.654 446.489,295.654C449.877,301.078 446.489,306.669 446.489,306.669L439.54,314.974C431.403,321.412 424.454,311.753 424.454,311.753ZM402.619,231.165C403.654,208.878 415.819,187.774 415.819,187.774C423.328,176.105 432.033,182.368 432.033,182.368L438.536,188.059C443.924,193.224 440.577,198.849 440.577,198.849C431.014,215.702 429.805,233.552 429.805,233.552C428.785,239.867 422.549,241.844 422.549,241.844L411.918,241.938C401.555,241.428 402.619,231.165 402.619,231.165ZM448.235,170.068C452.584,170.171 456.022,173.787 455.919,178.136C455.815,182.487 452.202,185.927 447.849,185.822C443.5,185.715 440.06,182.102 440.163,177.752C440.274,173.403 443.883,169.959 448.235,170.068ZM457.002,168.095L448.694,161.147C442.26,153.013 451.915,146.067 451.915,146.067C469.368,132.172 493.264,127.427 493.264,127.427C506.991,125.394 508.006,136.069 508.006,136.069L508.006,144.711C507.668,152.168 501.23,153.353 501.23,153.353C482.249,157.252 468.015,168.095 468.015,168.095C462.592,171.487 457.002,168.095 457.002,168.095ZM636.242,214.874C638.274,228.6 627.601,229.614 627.601,229.614L618.961,229.614C611.502,229.277 610.315,222.836 610.315,222.836C609.756,220.122 609.053,217.509 608.264,215.014L601.241,222.421C602.869,228.891 603.742,235.664 603.742,242.639C603.742,288.319 566.711,325.348 521.029,325.348C475.351,325.348 438.318,288.319 438.318,242.639C438.318,196.959 475.351,159.926 521.029,159.926C529.789,159.926 538.222,161.299 546.146,163.821L553.45,156.897C540.808,152.14 530.114,151.412 530.114,151.412C523.801,150.393 521.826,144.159 521.826,144.159L521.734,133.528C522.24,123.165 532.505,124.229 532.505,124.229C551.662,125.119 569.93,134.224 574.687,136.767L589.5,122.723C589.538,121.227 589.839,120.073 589.839,120.073L590.064,118.571L587.808,117.184L586.752,118.062C584.923,120.241 582.496,121.276 581.241,121.697C579.23,120.691 577.188,119.738 575.122,118.834C573.421,116.257 573.938,112.417 573.938,112.417L573.969,110.893L571.557,109.804L570.618,110.81C569.08,113.196 566.809,114.522 565.618,115.098C563.493,114.356 561.349,113.665 559.175,113.028C557.171,110.688 557.194,106.813 557.194,106.813L557.039,105.297L554.508,104.519L553.705,105.633C552.476,108.199 550.38,109.806 549.269,110.522C547.084,110.057 544.877,109.644 542.653,109.287C540.348,107.22 539.887,103.351 539.887,103.351L539.543,101.869L536.94,101.413L536.273,102.618C535.369,105.338 533.474,107.204 532.467,108.045C530.26,107.859 528.036,107.728 525.803,107.65C523.229,105.901 522.28,102.086 522.28,102.086L521.754,100.66L519.112,100.535L518.603,101.814C518.044,104.633 516.388,106.724 515.497,107.68C513.262,107.771 511.04,107.916 508.837,108.112C506.072,106.693 504.657,103.039 504.657,103.039L503.952,101.69L501.313,101.893L500.972,103.229C500.776,106.075 499.411,108.346 498.643,109.415C496.419,109.787 494.216,110.212 492.033,110.688C489.136,109.61 487.29,106.191 487.29,106.191L486.423,104.939L483.828,105.475L483.657,106.84C483.821,109.677 482.76,112.087 482.13,113.253C479.968,113.902 477.827,114.604 475.707,115.36C472.706,114.648 470.453,111.496 470.453,111.496L469.437,110.361L466.93,111.219L466.936,112.596C467.451,115.388 466.696,117.916 466.226,119.149C464.162,120.066 462.127,121.031 460.123,122.044C457.052,121.718 454.415,118.87 454.415,118.87L453.265,117.874L450.885,119.036L451.058,120.398C451.926,123.116 451.496,125.722 451.176,127.004C449.255,128.167 447.362,129.374 445.507,130.629C442.413,130.699 439.429,128.193 439.429,128.193L438.161,127.348L435.952,128.804L436.293,130.136C437.495,132.736 437.388,135.396 437.231,136.695C435.485,138.079 433.773,139.503 432.099,140.97C429.028,141.45 425.729,139.324 425.729,139.324L424.369,138.644L422.354,140.361L422.861,141.642C424.383,144.08 424.607,146.741 424.614,148.047C423.055,149.634 421.54,151.256 420.063,152.918C417.076,153.781 413.531,152.081 413.531,152.081L412.091,151.578L410.313,153.539L410.977,154.744C412.789,156.966 413.345,159.568 413.514,160.867C412.162,162.643 410.855,164.449 409.591,166.291C406.738,167.505 403.029,166.269 403.029,166.269L401.54,165.951L400.017,168.116L400.827,169.229C402.893,171.192 403.771,173.685 404.11,174.96C402.979,176.905 401.897,178.876 400.866,180.882C398.19,182.418 394.387,181.663 394.387,181.663L392.87,181.532L391.63,183.872L392.575,184.874C394.856,186.551 396.039,188.897 396.541,190.129C395.659,192.203 394.835,194.309 394.059,196.439C391.601,198.288 387.742,198.016 387.742,198.016L386.223,198.073L385.286,200.554L386.347,201.428C388.825,202.813 390.294,204.994 390.94,206.149C390.336,208.312 389.785,210.498 389.283,212.7C387.076,214.855 383.204,215.075 383.204,215.075L381.702,215.324L381.082,217.9L382.245,218.633C384.893,219.701 386.627,221.702 387.412,222.763C387.087,224.964 386.813,227.182 386.596,229.415C384.682,231.858 380.835,232.565 380.835,232.565L379.377,233.001L379.082,235.634L380.329,236.217C383.103,236.952 385.088,238.732 385.987,239.683C385.969,240.668 385.948,241.653 385.948,242.639C385.948,243.885 385.969,245.123 386.003,246.359C384.413,249.029 380.68,250.212 380.68,250.212L379.285,250.834L379.325,253.477L380.628,253.903C383.464,254.279 385.649,255.787 386.666,256.62C386.9,258.86 387.181,261.084 387.519,263.289C386.26,266.116 382.735,267.747 382.735,267.747L381.431,268.533L381.798,271.153L383.15,271.41C385.991,271.43 388.331,272.637 389.456,273.336C389.966,275.542 390.538,277.725 391.152,279.886C390.25,282.835 386.974,284.879 386.974,284.879L385.776,285.826L386.474,288.378L387.843,288.467C390.659,288.127 393.128,289.028 394.337,289.583C395.122,291.702 395.959,293.796 396.849,295.861C396.321,298.904 393.32,301.349 393.32,301.349L392.256,302.436L393.265,304.879L394.638,304.796C397.399,304.105 399.977,304.697 401.235,305.097C402.278,307.086 403.365,309.048 404.5,310.98C404.378,314.073 401.688,316.891 401.688,316.891L400.763,318.104L402.073,320.403L403.422,320.146C406.094,319.111 408.738,319.384 410.028,319.622C411.304,321.457 412.619,323.254 413.979,325.016C414.26,328.111 411.937,331.267 411.937,331.267L411.174,332.584L412.756,334.699L414.066,334.276C416.594,332.909 419.257,332.854 420.565,332.929C422.057,334.584 423.581,336.201 425.149,337.78C425.817,340.816 423.904,344.241 423.904,344.241L423.312,345.642L425.153,347.544L426.393,346.961C428.726,345.291 431.354,344.898 432.662,344.81C434.351,346.269 436.072,347.689 437.836,349.065C438.868,351.99 437.402,355.612 437.402,355.612L436.993,357.078L439.05,358.735L440.217,357.999C442.315,356.055 444.865,355.335 446.157,355.081C448.019,356.321 449.912,357.517 451.837,358.668C453.219,361.438 452.221,365.203 452.221,365.203L451.998,366.709L454.252,368.094L455.312,367.218C457.139,365.035 459.569,364.001 460.82,363.584C462.832,364.588 464.873,365.541 466.936,366.446C468.643,369.021 468.124,372.861 468.124,372.861L468.091,374.381L470.505,375.474L471.446,374.47C472.981,372.088 475.251,370.757 476.447,370.183C478.567,370.923 480.717,371.612 482.885,372.252C484.893,374.592 484.862,378.463 484.862,378.463L485.021,379.979L487.552,380.759L488.36,379.648C489.586,377.081 491.679,375.474 492.791,374.758C494.978,375.221 497.185,375.635 499.409,375.989C501.713,378.06 502.173,381.925 502.173,381.925L502.518,383.409L505.122,383.865L505.786,382.662C506.69,379.941 508.589,378.076 509.593,377.236C511.802,377.421 514.026,377.55 516.263,377.631C518.828,379.384 519.776,383.193 519.776,383.193L520.307,384.618L522.95,384.745L523.456,383.468C524.015,380.65 525.667,378.558 526.563,377.602C528.8,377.509 531.02,377.365 533.23,377.17C535.989,378.591 537.403,382.239 537.403,382.239L538.106,383.59L540.749,383.385L541.09,382.055C541.286,379.207 542.651,376.938 543.419,375.867C545.639,375.498 547.846,375.07 550.036,374.592C552.926,375.669 554.771,379.087 554.771,379.087L555.639,380.338L558.233,379.803L558.403,378.439C558.244,375.609 559.297,373.197 559.93,372.029C562.098,371.379 564.238,370.676 566.36,369.919C569.357,370.637 571.605,373.784 571.605,373.784L572.625,374.915L575.126,374.061L575.126,372.686C574.615,369.896 575.358,367.371 575.836,366.135C577.901,365.217 579.94,364.251 581.948,363.235C585.016,363.566 587.645,366.41 587.645,366.41L588.795,367.404L591.173,366.245L591.005,364.88C590.14,362.167 590.57,359.565 590.886,358.281C592.809,357.118 594.707,355.906 596.562,354.651C599.65,354.584 602.633,357.083 602.633,357.083L603.898,357.928L606.109,356.478L605.771,355.146C604.57,352.545 604.674,349.896 604.831,348.591C606.578,347.205 608.295,345.776 609.972,344.308C613.045,343.832 616.335,345.954 616.335,345.954L617.695,346.633L619.708,344.917L619.204,343.638C617.68,341.202 617.459,338.55 617.449,337.238C619.009,335.651 620.531,334.023 622.006,332.361C624.995,331.499 628.531,333.195 628.531,333.195L629.969,333.697L631.747,331.743L631.089,330.538C629.274,328.317 628.719,325.721 628.548,324.42C629.9,322.641 631.212,320.831 632.479,318.985C635.331,317.775 639.031,319.009 639.031,319.009L640.522,319.327L642.045,317.162L641.238,316.049C639.175,314.09 638.293,311.602 637.955,310.325C639.086,308.378 640.166,306.4 641.203,304.394C643.879,302.861 647.675,303.617 647.675,303.617L649.189,303.745L650.43,301.408L649.486,300.406C647.21,298.727 646.028,296.391 645.528,295.158C646.405,293.077 647.233,290.969 648.007,288.836C650.473,286.991 654.314,287.264 654.314,287.264L655.837,287.201L656.776,284.726L655.715,283.85C653.246,282.469 651.775,280.293 651.125,279.137C651.729,276.968 652.284,274.782 652.786,272.573C654.989,270.419 658.857,270.207 658.857,270.207L660.363,269.954L660.979,267.382L659.817,266.644C657.177,265.579 655.438,263.584 654.657,262.523C654.98,260.314 655.252,258.094 655.474,255.855C657.385,253.419 661.229,252.715 661.229,252.715L662.683,252.275L662.977,249.644L661.73,249.061C658.959,248.33 656.982,246.551 656.08,245.599C656.101,244.617 656.113,243.63 656.113,242.639C656.113,241.392 656.097,240.149 656.062,238.91C657.654,236.247 661.384,235.065 661.384,235.065L662.775,234.445L662.738,231.801L661.428,231.375C658.602,230.999 656.424,229.496 655.399,228.662C655.165,226.418 654.887,224.189 654.545,221.978C655.802,219.159 659.326,217.533 659.326,217.533L660.629,216.745L660.258,214.126L658.907,213.87C656.078,213.848 653.74,212.648 652.611,211.947C652.1,209.738 651.529,207.549 650.908,205.385C651.813,202.441 655.093,200.398 655.093,200.398L656.285,199.452L655.59,196.9L654.213,196.815C651.406,197.151 648.937,196.254 647.731,195.698C646.94,193.574 646.104,191.478 645.213,189.406C645.744,186.372 648.739,183.927 648.739,183.927L649.805,182.84L648.797,180.398L647.422,180.485C644.892,181.114 642.535,180.671 641.187,180.288L629.079,193.06C634.252,204.857 636.242,214.874 636.242,214.874Z" style="fill:white;fill-rule:nonzero;"/>
            </g>
        </g>
    </g>
</svg>
