<?xml version="1.0" encoding="UTF-8" standalone="no"?>
<!DOCTYPE svg PUBLIC "-//W3C//DTD SVG 1.1//EN" "http://www.w3.org/Graphics/SVG/1.1/DTD/svg11.dtd">
<svg width="100%" height="100%" viewBox="0 0 28 41" version="1.1" xmlns="http://www.w3.org/2000/svg" xmlns:xlink="http://www.w3.org/1999/xlink" xml:space="preserve" style="fill-rule:evenodd;clip-rule:evenodd;stroke-linecap:round;stroke-linejoin:round;stroke-miterlimit:1.41421;">
    <g transform="matrix(1,0,0,1,-59.106,-3.55271e-15)">
        <g id="TRAIL" transform="matrix(1,0,0,1,59.106,3.55271e-15)">
            <clipPath id="_clip1">
                <rect x="0" y="0" width="27.229" height="40.452"/>
            </clipPath>
            <g clip-path="url(#_clip1)">
                <g transform="matrix(0.093542,0,0,0.065061,-207.656,2.52999)">
                    <text x="2236.22px" y="532.985px" style="font-family:'Avenir-Black', 'Avenir', sans-serif;font-weight:800;font-size:92.448px;fill:white;">TRAIL</text>
                </g>
                <g transform="matrix(-0.0667294,0,0,0.0667294,53.5072,-2.28106)">
                    <path d="M602.885,190.86C601.918,196.956 601.248,205.729 600.951,207.885C600.655,210.042 598.28,215.022 598.28,215.022C598.28,215.022 597.458,213.015 596.64,210.784C595.822,208.554 594.856,205.432 593.888,200.897C592.921,196.361 593.518,190.934 592.625,184.541C591.733,178.148 591.584,175.322 591.584,175.322C591.584,175.322 593.146,176.289 597.159,178.073C601.174,179.858 604.371,180.006 604.893,180.303C605.412,180.601 603.851,184.764 602.885,190.86M600.433,326.687C600.135,326.91 597.459,326.539 588.092,323.267C578.725,319.997 572.553,316.279 564.004,313.008C555.454,309.737 551.291,310.034 550.845,309.44C550.4,308.845 553.967,308.027 556.42,306.763C558.874,305.499 567.374,302.587 572.032,300.518C576.693,298.45 576.271,297.916 577.534,297.768C578.797,297.619 581.401,298.957 582.813,298.734C584.225,298.51 585.34,300.667 586.902,303.12C588.462,305.574 591.139,310.777 593.667,315.387C596.196,319.996 600.73,326.464 600.433,326.687M520.747,101.229C520.288,100.709 519.863,100.02 519.607,99.249C520.01,99.682 520.453,100.014 520.879,100.276C521.317,100.545 521.751,100.707 522.148,100.805C522.037,101.109 521.906,101.442 521.771,101.796C521.406,101.711 521.034,101.556 520.747,101.229M520.769,88.075C520.965,87.62 521.329,87.243 521.651,86.84C521.78,86.728 521.907,86.611 522.036,86.496C522.02,86.764 522.033,87.027 522.084,87.27C521.854,87.543 521.647,87.818 521.478,88.098C521.326,88.349 521.184,88.594 521.046,88.836C520.701,89.227 520.37,89.635 520.094,90.102C520.134,89.873 520.188,89.638 520.224,89.398C520.389,88.967 520.499,88.497 520.769,88.075M526.813,81.505C527.996,81.176 529.268,81.096 530.459,81.07C531.151,81.056 531.822,81.085 532.463,81.118C532.067,81.279 531.675,81.441 531.293,81.603C530.795,81.527 530.288,81.456 529.769,81.409C528.95,81.348 528.096,81.351 527.239,81.484C526.376,81.599 525.517,81.981 524.85,82.427C524.66,82.553 524.481,82.688 524.307,82.825C524.945,82.175 525.842,81.732 526.813,81.505M533.561,80.514C534.308,79.937 535.367,79.506 536.52,79.194C536.663,79.156 536.816,79.127 536.963,79.093C536.66,79.183 536.37,79.283 536.099,79.396C535.349,79.704 534.745,80.064 534.269,80.431C534.055,80.503 533.844,80.579 533.632,80.658C533.571,80.651 533.504,80.641 533.44,80.632C533.483,80.593 533.515,80.551 533.561,80.514M550.249,79.797C549.014,79.619 547.743,79.47 546.46,79.365C546.894,79.323 547.347,79.297 547.827,79.322C548.621,79.337 549.46,79.508 550.249,79.797M557.895,81.215C558.775,81.574 559.527,82.263 559.926,83.21C560.146,83.677 560.406,84.131 560.503,84.635C560.562,84.882 560.657,85.121 560.689,85.369C560.714,85.609 560.738,85.846 560.762,86.079C560.7,85.989 560.642,85.898 560.578,85.808C560.406,85.486 560.219,85.161 559.998,84.842C559.922,84.729 559.828,84.621 559.745,84.508C559.652,84.112 559.531,83.697 559.338,83.255C559.053,82.571 558.559,81.827 557.874,81.208C557.881,81.211 557.888,81.213 557.895,81.215M563.335,90.45C563.721,90.795 563.911,91.06 564.038,91.397C564.066,91.479 564.068,91.573 564.082,91.661C563.767,91.386 563.434,91.017 563.101,90.55C563.046,90.401 562.984,90.243 562.918,90.083C563.065,90.203 563.211,90.322 563.335,90.45M563.538,91.867C563.744,91.978 563.939,92.073 564.111,92.144C564.104,92.262 564.104,92.379 564.084,92.501C564.042,92.724 563.997,92.944 563.951,93.16C563.827,92.769 563.688,92.331 563.538,91.867M563.605,118.46C563.704,118.259 563.797,118.027 563.882,117.775C563.985,117.613 564.082,117.449 564.155,117.286C564.164,117.266 564.174,117.244 564.183,117.223C564.174,117.272 564.172,117.324 564.159,117.372C564.074,117.79 563.873,118.142 563.605,118.46M561.456,120.382C561.475,120.366 561.504,120.352 561.527,120.337C561.476,120.391 561.431,120.443 561.381,120.496C561.406,120.456 561.429,120.406 561.456,120.382M521.087,98.638C521.541,99.091 522.023,99.326 522.404,99.47C522.415,99.699 522.398,99.931 522.34,100.17C522.066,99.982 521.781,99.744 521.497,99.464C520.933,98.892 520.335,98.077 520.123,97.244C520.107,97.18 520.1,97.115 520.09,97.05C520.328,97.699 520.695,98.225 521.087,98.638M526.459,83.938C526.21,83.966 525.955,83.997 525.697,84.034C525.493,84.064 525.282,84.101 525.071,84.14C525.262,84.012 525.452,83.881 525.658,83.77C526.239,83.443 526.824,83.272 527.494,83.186C527.63,83.169 527.777,83.172 527.916,83.162C527.408,83.419 526.921,83.677 526.459,83.938M520.664,95.797C521.553,97.277 522.235,98.254 522.387,99.199C522.092,98.989 521.764,98.689 521.462,98.308C521.056,97.794 520.769,97.001 520.661,96.243C520.645,96.096 520.655,95.946 520.664,95.797M523.106,86.21C523.237,85.95 523.418,85.691 523.626,85.435C523.94,85.291 524.271,85.178 524.606,85.082C524.043,85.466 523.535,85.855 523.088,86.251C523.095,86.237 523.098,86.224 523.106,86.21M499.509,209.651C498.924,209.428 496.498,207.476 496.665,207.197C496.833,206.919 499.453,208.145 500.122,208.675C500.791,209.204 500.094,209.874 499.509,209.651M495.383,217.54C493.711,216.649 493.348,216.147 493.431,215.951C493.513,215.762 495.04,216.5 495.924,216.899C497.076,217.42 498.533,218.265 498.422,218.433C498.31,218.6 497.056,218.433 495.383,217.54M495.69,212.243C495.55,212.382 494.352,211.519 494.463,211.351C494.574,211.184 495.829,212.104 495.69,212.243M706.205,433.185C704.588,431.846 702.098,431.662 702.098,431.662C702.098,431.662 701.54,430.36 700.017,427.572C698.492,424.785 695.927,422.889 695.965,421.514C696.002,420.138 696.113,418.429 695.147,418.316C694.18,418.205 692.879,420.436 692.879,420.436C692.879,420.436 690.65,417.982 688.605,415.045C686.56,412.109 677.602,398.131 674.181,392.407C670.761,386.683 669.423,376.423 662.212,367.725C655,359.027 648.756,353.525 645.261,349.436C641.767,345.348 638.403,338.898 638.403,338.898C638.403,338.898 639.092,336.129 639.203,334.195C639.315,332.263 639.164,330.293 638.422,329.847C637.679,329.401 636.564,329.549 636.564,329.549C636.564,329.549 634.891,324.568 634.723,318.045C634.555,311.521 632.325,305.889 630.932,301.986C629.537,298.083 628.311,295.853 628.311,295.853C628.311,295.853 631.489,294.627 633.552,293.79C635.614,292.953 634.834,290.667 633.775,287.88C632.715,285.091 632.325,281.579 629.817,277.787C627.307,273.996 625.858,272.212 625.858,271.319C625.858,270.427 625.802,267.584 624.798,265.298C623.794,263.011 623.572,253.811 621.899,249.741C620.225,245.671 619.78,243.496 616.824,239.649C613.869,235.801 610.357,232.066 609.631,231.842C608.907,231.619 607.122,231.397 607.234,231.117C607.345,230.839 609.687,227.214 612.364,222.698C615.039,218.182 617.903,215.245 621.619,206.398C625.336,197.551 627.417,185.879 628.458,183.203C629.499,180.527 632.175,177.627 630.912,174.727C629.649,171.828 628.236,172.2 625.262,168.78C622.288,165.36 615.3,156.29 608.089,151.978C600.877,147.667 596.64,145.956 593.815,143.429C590.989,140.901 584.224,131.236 579.094,128.932C573.964,126.627 571.939,125.233 568.148,124.898C564.356,124.564 561.568,124.452 561.289,123.616C561.125,123.123 561.08,122.209 561.149,121.469C561.264,121.336 561.393,121.2 561.542,121.064C562,120.634 562.644,120.253 563.312,119.777C563.978,119.347 564.801,118.57 565.027,117.582C565.184,116.806 565.098,116.06 564.946,115.383C565.089,114.979 565.223,114.565 565.32,114.129C565.48,113.398 565.622,112.642 565.647,111.859C566.127,111.207 566.239,110.18 565.941,109.278C565.848,108.981 565.726,108.708 565.6,108.435C566.152,105.835 566.18,99.397 565.471,97.577C565.008,96.385 564.68,95.422 564.281,94.189C564.505,93.821 564.794,93.388 565.062,92.795C565.252,92.363 565.425,91.792 565.343,91.132C565.272,90.487 564.885,89.824 564.502,89.404C564.114,88.93 563.685,88.497 563.201,88.122C562.724,87.742 562.223,87.401 561.723,87.075C561.653,87.035 561.584,86.995 561.513,86.954C561.538,86.666 561.551,86.372 561.538,86.067C561.52,85.798 561.501,85.525 561.482,85.248C561.454,84.972 561.364,84.701 561.306,84.422C561.212,83.854 560.949,83.335 560.718,82.803C560.474,82.277 560.087,81.79 559.659,81.381C559.203,81.004 558.71,80.673 558.181,80.498C557.487,80.232 556.799,80.172 556.169,80.179C556.072,80.144 555.98,80.102 555.877,80.072C555.014,79.813 554.095,79.718 553.202,79.778C552.871,79.798 552.546,79.845 552.221,79.89C551.746,79.54 551.231,79.173 550.595,78.973C549.681,78.677 548.723,78.527 547.832,78.549C546.932,78.541 546.132,78.805 545.459,78.987C545.331,79.028 545.215,79.081 545.099,79.133C545.045,79.126 544.993,79.114 544.941,79.106C544.467,79.044 544,78.982 543.53,78.92C542.537,78.542 541.467,78.164 540.314,78.001C538.901,77.837 537.534,78.09 536.306,78.452C535.073,78.824 534.011,79.436 533.233,80.136C533.094,80.27 532.98,80.41 532.875,80.552C532.143,80.437 531.337,80.302 530.456,80.296C529.236,80.287 527.907,80.323 526.588,80.642C525.293,80.984 523.981,81.714 523.265,82.852C522.884,83.414 522.717,84.005 522.565,84.556C522.52,84.732 522.489,84.901 522.454,85.072C522.436,85.083 522.416,85.09 522.399,85.101C521.875,85.425 521.469,85.869 521.04,86.276C520.682,86.748 520.295,87.193 520.079,87.725C519.793,88.22 519.708,88.773 519.585,89.268C519.56,89.781 519.485,90.259 519.547,90.698C519.564,90.877 519.578,91.045 519.594,91.211C519.497,91.495 519.446,91.789 519.407,92.081C519.335,92.535 519.375,93.003 519.471,93.426C519.406,93.525 519.337,93.617 519.274,93.719C518.951,94.281 518.66,94.898 518.501,95.592C518.342,96.255 518.386,96.994 518.608,97.641C518.57,98.029 518.586,98.417 518.678,98.765C518.952,100.011 519.71,100.921 520.392,101.581C520.777,101.938 521.26,102.086 521.651,102.111C521.126,103.502 520.618,105.114 521.144,106.275C521.924,108.004 523.43,109.62 522.37,111.628C521.311,113.635 518.969,115.865 518.969,117.426C518.969,118.988 523.373,118.709 523.486,120.326C523.597,121.943 523.095,122.779 523.486,123.393C523.875,124.006 524.823,124.173 524.823,124.173C524.823,124.173 523.597,125.177 524.266,126.403C524.935,127.63 526.162,127.185 526.329,129.024C526.496,130.864 526.663,134.154 529.953,134.712C533.242,135.269 536.253,133.987 537.146,134.879C538.038,135.771 537.119,138.503 538.193,139.786C539.265,141.068 543.28,141.904 542.946,145.585C542.61,149.265 539.822,156.402 539.042,159.636C538.261,162.87 534.748,174.356 534.302,178.984C533.857,183.611 534.469,189.689 536.979,193.536C539.488,197.384 541.886,198.777 542.443,201.844C543.001,204.911 543.28,207.922 544.45,210.933C545.621,213.944 546.457,216.509 546.068,216.955C545.677,217.401 539.599,219.297 536.142,219.074C532.686,218.851 522.76,217.512 521.199,215.617C519.638,213.721 517.073,206.974 516.07,204.856C515.066,202.736 512.891,200.729 512.445,199.558C511.999,198.388 509.211,195.934 508.542,194.652C507.873,193.369 506.118,193.425 506.271,195.655C506.423,197.886 506.256,198.332 507.594,200.339C508.932,202.346 511.162,205.023 510.606,205.859C510.047,206.696 508.152,206.863 505.977,206.25C503.802,205.636 498.783,203.238 497,202.793C495.216,202.346 493.934,202.514 493.542,203.183C493.153,203.852 493.878,205.692 493.878,205.692C493.878,205.692 491.815,204.911 491.201,206.027C490.588,207.141 491.201,208.48 491.201,208.48C491.201,208.48 489.249,208.815 489.696,210.933C490.142,213.052 491.592,214.613 491.592,214.613C491.592,214.613 489.864,215.672 491.592,217.959C493.32,220.245 496.108,220.858 497.669,221.806C499.231,222.754 504.026,226.155 507.65,226.824C511.274,227.493 514.34,226.713 516.181,227.549C518.021,228.385 521.088,230.003 528.113,231.062C535.139,232.121 540.213,234.296 546.123,234.129C552.033,233.962 557.944,232.623 558.334,233.013C558.725,233.404 559.448,237.92 561.624,242.157C563.798,246.395 565.916,250.465 566.364,251.191C566.809,251.915 567.479,254.369 567.144,254.648C566.809,254.926 566.234,255.763 565.268,256.135C564.301,256.506 563.631,256.06 562.145,256.655C560.658,257.25 560.361,260.224 555.603,261.265C550.845,262.305 546.236,266.319 541.998,269.367C537.76,272.416 527.279,280.371 521.182,289.069C515.085,297.768 509.285,307.21 507.725,311.149C506.163,315.089 506.832,318.584 506.387,321.484C505.941,324.382 506.684,328.472 510.401,330.404C514.118,332.338 520.661,335.534 523.858,335.981C527.054,336.426 534.489,335.163 536.868,335.981C539.246,336.798 548.836,339.326 559.096,339.698C569.356,340.069 582.739,340.144 589.875,341.928C597.012,343.712 601.268,346.314 601.268,346.314C601.268,346.314 600.71,347.764 601.77,348.6C602.829,349.436 604.223,350.44 604.056,350.496C603.889,350.552 602.272,350.384 602.774,351.165C603.275,351.945 604.112,353.897 604.614,353.897C605.115,353.897 606.286,353.172 606.398,353.897C606.509,354.622 606.733,356.964 607.457,357.689C608.182,358.414 607.289,359.361 608.405,360.476C609.52,361.592 608.684,362.484 609.353,363.32C610.022,364.157 609.52,364.714 609.91,366.164C610.301,367.613 611.026,367.502 611.026,369.509C611.026,371.517 611.137,374.974 609.297,378.096C607.457,381.218 605.784,384.243 606.286,386.634C606.788,389.025 607.959,390.595 610.746,389.447C613.534,388.3 618.776,383.728 621.731,379.881C624.687,376.033 627.029,371.071 627.641,369.454C628.255,367.837 628.646,366.052 628.868,365.941C629.091,365.83 631.99,367.837 633.886,371.238C635.781,374.639 644.221,384.865 649.574,391.349C654.927,397.835 661.915,403.856 666.376,411.291C670.837,418.726 671.244,421.42 671.411,422.368C671.578,423.316 671.411,424.933 671.411,424.933C671.411,424.933 670.407,424.096 669.906,425.212C669.405,426.327 669.962,429.672 669.573,430.007C669.181,430.341 667.899,431.234 667.453,433.13C667.006,435.025 665.948,436.809 665.668,438.091C665.39,439.375 664.554,440.601 664.665,441.494C664.777,442.385 664.61,443.836 664.274,444.281C663.94,444.727 662.991,447.236 660.985,448.853C658.977,450.47 653.457,449.299 650.67,449.633C647.882,449.968 645.874,450.693 646.656,453.592C647.435,456.492 648.774,457.273 656.134,458.388C663.494,459.504 668.847,459.559 672.248,458.388C675.649,457.217 682.898,451.921 687.637,449.578C692.376,447.236 698.734,443.891 702.747,441.047C706.762,438.203 707.822,434.523 706.205,433.185" style="fill:white;fill-rule:nonzero;"/>
                </g>
                <g transform="matrix(1,0,0,1,-61.8651,1.48369)">
                    <path d="M73.866,25.905C73.866,25.497 73.866,25.088 73.866,24.68C73.866,24.525 73.78,24.017 73.866,23.857C74.425,22.815 75.601,23.974 76.381,23.553C76.857,23.296 77.265,22.503 77.341,21.942C77.372,21.708 77.187,21.041 77.44,20.918C77.637,20.821 78.183,20.904 78.396,20.904C78.821,20.904 78.779,20.911 79.219,21.02C79.696,21.14 89.241,14.609 89.597,14.966C90.279,15.649 89.094,18.697 89.094,19.616C89.094,19.685 89.652,11.099 89.094,16.313C89.036,16.859 79.737,24.63 79.363,24.821C78.851,25.082 78.531,25.926 78.531,26.461C78.531,26.511 78.61,27.214 78.541,27.251C78.009,27.528 76.611,27.251 75.978,27.251C75.038,27.251 74.029,27.335 73.099,27.251C72.905,27.233 72.662,27.01 72.525,27.148C72.066,27.607 70.647,27.619 69.894,27.619" style="fill:white;"/>
                </g>
                <g transform="matrix(1,0,0,1,-59.106,-3.55271e-15)">
                    <path d="M59.106,20.226C66.484,7 67.088,6.867 67.088,6.867L72.721,17.099L70.007,11.434L79.941,2.921L86.335,9.807" style="fill:none;stroke-width:0.47px;stroke:white;"/>
                </g>
            </g>
        </g>
    </g>
</svg>
