<?xml version="1.0" encoding="UTF-8" standalone="no"?>
<!DOCTYPE svg PUBLIC "-//W3C//DTD SVG 1.1//EN" "http://www.w3.org/Graphics/SVG/1.1/DTD/svg11.dtd">
<svg width="100%" height="100%" viewBox="0 0 564 135" version="1.1" xmlns="http://www.w3.org/2000/svg" xmlns:xlink="http://www.w3.org/1999/xlink" xml:space="preserve" style="fill-rule:evenodd;clip-rule:evenodd;stroke-linejoin:round;stroke-miterlimit:1.41421;">
    <g transform="matrix(1,0,0,1,-519.986,-328.336)">
        <g>
            <g transform="matrix(9.36766,0,0,9.36766,-1329.29,-5356.74)">
                <text x="211.561px" y="617.924px" style="font-family:'Arial-BoldMT', 'Arial', sans-serif;font-weight:700;font-size:12px;fill:white;">AMOĲA</text>
            </g>
            <g>
                <g transform="matrix(1,0,0,1,288.307,16.8745)">
                    <path d="M284.074,311.461L336.469,416.251L231.679,416.251L284.074,311.461Z" style="fill:rgb(213,104,77);"/>
                </g>
                <g transform="matrix(0.452332,0,0,0.452332,439.617,229.359)">
                    <path d="M284.074,311.461L336.469,416.251L231.679,416.251L284.074,311.461Z" style="fill:rgb(115,115,115);"/>
                </g>
                <g transform="matrix(0.316739,0,0,0.316739,493.775,285.8)">
                    <path d="M284.074,311.461L336.469,416.251L231.679,416.251L284.074,311.461Z" style="fill:rgb(99,99,99);"/>
                </g>
                <g transform="matrix(0.209113,0,0,0.209113,827.944,357.94)">
                    <text x="781.024px" y="501.889px" style="font-family:'AndaleMono', 'Andale Mono', monospace;font-size:122.828px;fill:rgb(213,104,76);">EVENTS</text>
                </g>
            </g>
        </g>
    </g>
</svg>
