<?xml version="1.0" encoding="UTF-8" standalone="no"?>
<!DOCTYPE svg PUBLIC "-//W3C//DTD SVG 1.1//EN" "http://www.w3.org/Graphics/SVG/1.1/DTD/svg11.dtd">
<svg width="100%" height="100%" viewBox="0 0 181 70" version="1.1" xmlns="http://www.w3.org/2000/svg" xmlns:xlink="http://www.w3.org/1999/xlink" xml:space="preserve" style="fill-rule:evenodd;clip-rule:evenodd;stroke-linejoin:round;stroke-miterlimit:1.41421;">
    <g transform="matrix(1,0,0,1,-13.9957,-144.153)">
        <g transform="matrix(2.71897,0,0,2.71897,-15622.2,-933.137)">
            <path d="M5817.19,421.912L5810.97,421.912L5804.99,412.191L5799.01,421.912L5793.18,421.912L5801.7,408.658L5793.72,396.213L5799.73,396.213L5805.27,405.459L5810.7,396.213L5816.57,396.213L5808.5,408.957L5817.19,421.912Z" style="fill:rgb(213,104,76);fill-rule:nonzero;"/>
        </g>
        <g transform="matrix(0.262757,0,0,0.262757,-1494.73,103.099)">
            <text x="5793.18px" y="421.912px" style="font-family:'Verdana-BoldItalic', 'Verdana', sans-serif;font-weight:700;font-style:italic;font-size:36px;fill:white;">C<tspan x="5832.91px 5876.73px 5918.36px 5954.98px 5991.6px 6029.87px 6074.03px 6116.91px " y="421.912px 421.912px 421.912px 421.912px 421.912px 421.912px 421.912px 421.912px ">HALLENGE</tspan></text>
        </g>
        <g transform="matrix(2.06548,0,0,2.06548,-11953.2,-673.741)">
            <text x="5793.18px" y="421.912px" style="font-family:'OpenSans-Bold', 'Open Sans', sans-serif;font-weight:700;font-size:36px;fill:white;">TRI</text>
        </g>
        <g transform="matrix(0.595786,0,0,0.595786,54.7142,74.7107)">
            <rect x="131.663" y="169.234" width="10.542" height="10.542" style="fill:rgb(213,104,76);"/>
        </g>
    </g>
</svg>
